<svg width="27" height="27" viewBox="0 0 27 27" fill="none" xmlns="http://www.w3.org/2000/svg">
<path d="M13.5 0.75C20.5416 0.75 26.25 6.45837 26.25 13.5C26.25 20.5416 20.5416 26.25 13.5 26.25C6.45837 26.25 0.75 20.5416 0.75 13.5C0.75 6.45837 6.45837 0.75 13.5 0.75Z" stroke="#A8A8A8" stroke-width="1.5"/>
<path d="M13.4996 0.5C14.1434 0.5 14.7975 0.797781 15.4361 1.41895C16.077 2.04247 16.6772 2.96934 17.192 4.15332C18.2208 6.51976 18.8697 9.824 18.8697 13.5C18.8697 17.176 18.2208 20.4802 17.192 22.8467C16.6772 24.0307 16.077 24.9575 15.4361 25.5811C14.7975 26.2022 14.1434 26.5 13.4996 26.5C12.8559 26.4999 12.2024 26.202 11.564 25.5811C10.9231 24.9575 10.3229 24.0306 9.80817 22.8467C8.77928 20.4802 8.13043 17.176 8.13043 13.5C8.13043 9.824 8.77928 6.51976 9.80817 4.15332C10.3229 2.96936 10.9231 2.04246 11.564 1.41895C12.2024 0.797961 12.8559 0.500131 13.4996 0.5Z" stroke="#A8A8A8"/>
<path d="M2.93475 21.7174C12.3578 16.8805 15.7843 17.1651 24.0652 21.7174" stroke="#A8A8A8" stroke-width="0.5"/>
<path d="M2.93475 5.28261C12.3578 10.1195 15.7843 9.83492 24.0652 5.28262" stroke="#A8A8A8" stroke-width="0.5"/>
<line y1="13" x2="27" y2="13" stroke="#A8A8A8"/>
</svg>
